<?xml version="1.0" encoding="UTF-8"?>
<svg width="292px" height="177px" viewBox="0 0 292 177" version="1.1" xmlns="http://www.w3.org/2000/svg" xmlns:xlink="http://www.w3.org/1999/xlink">
    <!-- Generator: Sketch 59.1 (86144) - https://sketch.com -->
    <title>编组 4</title>
    <desc>Created with Sketch.</desc>
    <defs>
        <rect id="path-1" x="0" y="0" width="250" height="161"></rect>
    </defs>
    <g id="页面-1" stroke="none" stroke-width="1" fill="none" fill-rule="evenodd">
        <g id="拦阻页" transform="translate(-1040.000000, -180.000000)">
            <g id="编组-4" transform="translate(1040.000000, 180.000000)">
                <rect id="矩形" fill="#B3D4FF" x="0" y="0" width="250" height="16"></rect>
                <path d="M10,4 C12.209139,4 14,5.790861 14,8 C14,10.209139 12.209139,12 10,12 C7.790861,12 6,10.209139 6,8 C6,5.790861 7.790861,4 10,4 Z M24,4 C26.209139,4 28,5.790861 28,8 C28,10.209139 26.209139,12 24,12 C21.790861,12 20,10.209139 20,8 C20,5.790861 21.790861,4 24,4 Z M38,4 C40.209139,4 42,5.790861 42,8 C42,10.209139 40.209139,12 38,12 C35.790861,12 34,10.209139 34,8 C34,5.790861 35.790861,4 38,4 Z" id="形状结合" fill="#D6E9FF"></path>
                <g id="矩形备份-3" transform="translate(0.000000, 16.000000)">
                    <mask id="mask-2" fill="white">
                        <use xlink:href="#path-1"></use>
                    </mask>
                    <use id="矩形备份-2" fill="#F9FBFD" xlink:href="#path-1"></use>
                    <circle id="椭圆形" stroke="#6BABFF" mask="url(#mask-2)" cx="125.5" cy="72.5" r="80.5"></circle>
                    <ellipse id="椭圆形备份-13" fill="#E8F1FC" mask="url(#mask-2)" cx="213.5" cy="150" rx="80.5" ry="59"></ellipse>
                    <circle id="椭圆形备份-14" fill="#E8F1FC" mask="url(#mask-2)" cx="141" cy="195" r="51"></circle>
                    <ellipse id="椭圆形备份-12" fill="#EBF4FF" mask="url(#mask-2)" cx="-9" cy="-23.5" rx="71" ry="47.5"></ellipse>
                </g>
                <rect id="矩形" fill="#E0EEFF" x="184" y="56" width="108" height="89"></rect>
                <rect id="矩形" fill="#FFFFFF" x="251" y="123" width="31" height="12"></rect>
                <path d="M232,106 L232,107 L194,107 L194,106 L232,106 Z M262,95 L262,96 L194,96 L194,95 L262,95 Z M282,84 L282,85 L194,85 L194,84 L282,84 Z M282,73 L282,74 L194,74 L194,73 L282,73 Z" id="形状结合" fill="#6BABFF"></path>
                <polygon id="路径-4" fill="#6BABFF" points="184 145 250 157.573242 250 145"></polygon>
                <path d="M130,123 L130,131 L122,131 L122,123 L130,123 Z M130,51 L130,111 L122,111 L122,51 L130,51 Z" id="形状结合" fill="#6BABFF"></path>
            </g>
        </g>
    </g>
</svg>